BJCreeOrigB.ufo
<glyph name="ucas_i" format="2">
  <advance width="1584"/>
  <unicode hex="1403"/>
  <outline>
    <contour>
      <point x="480" y="260" type="line"/>
      <point x="1104" y="260" type="line"/>
      <point x="792" y="901" type="line"/>
    </contour>
    <contour>
      <point x="1524" y="0" type="line"/>
      <point x="60" y="0" type="line"/>
      <point x="792" y="1488" type="line"/>
    </contour>
  </outline>
</glyph>
<glyph name="ucas_a" format="2">
  <advance width="1731"/>
  <unicode hex="140A"/>
  <outline>
    <contour>
      <point x="1281" y="408" type="line"/>
      <point x="1281" y="1050" type="line"/>
      <point x="641" y="729" type="line"/>
    </contour>
    <contour>
      <point x="1541" y="1473" type="line"/>
      <point x="1541" y="-15" type="line"/>
      <point x="60" y="729" type="line"/>
    </contour>
  </outline>
</glyph>
<glyph name="ucas_wiiWCree" format="2">
  <advance width="1760"/>
  <unicode hex="1411"/>
  <outline>
    <component base="ucas_i"/>
    <component base="ucas_finalmiddledot" xOffset="1290"/>
    <contour>
      <point x="792" y="1929" type="line"/>
      <point x="883" y="1929"/>
      <point x="958" y="1854"/>
      <point x="958" y="1763" type="curve" smooth="yes"/>
      <point x="958" y="1670"/>
      <point x="885" y="1597"/>
      <point x="792" y="1597" type="curve" smooth="yes"/>
      <point x="704" y="1597"/>
      <point x="625" y="1675"/>
      <point x="625" y="1763" type="curve" smooth="yes"/>
      <point x="625" y="1850"/>
      <point x="705" y="1929"/>
      <point x="792" y="1929" type="curve"/>
    </contour>
  </outline>
</glyph>
<glyph name="ucas_wooWCree" format="2">
  <advance width="2184"/>
  <unicode hex="1415"/>
  <outline>
    <component base="ucas_o" yOffset="3"/>
    <component base="ucas_finalmiddledot" xOffset="1686" yOffset="3"/>
    <contour>
      <point x="319" y="1929" type="line"/>
      <point x="410" y="1929"/>
      <point x="485" y="1854"/>
      <point x="485" y="1763" type="curve" smooth="yes"/>
      <point x="485" y="1670"/>
      <point x="412" y="1597"/>
      <point x="319" y="1597" type="curve" smooth="yes"/>
      <point x="231" y="1597"/>
      <point x="152" y="1675"/>
      <point x="152" y="1763" type="curve" smooth="yes"/>
      <point x="152" y="1850"/>
      <point x="232" y="1929"/>
      <point x="319" y="1929" type="curve"/>
    </contour>
  </outline>
</glyph>
<glyph name="ucas_wYCree" format="2">
  <advance width="783"/>
  <unicode hex="141D"/>
  <outline>
    <contour>
      <point x="301" y="651" type="line"/>
      <point x="301" y="617"/>
      <point x="289" y="588"/>
      <point x="266" y="563" type="curve" smooth="yes"/>
      <point x="243" y="538"/>
      <point x="215" y="526"/>
      <point x="184" y="526" type="curve" smooth="yes"/>
      <point x="152" y="526"/>
      <point x="125" y="538"/>
      <point x="102" y="563" type="curve" smooth="yes"/>
      <point x="79" y="588"/>
      <point x="68" y="617"/>
      <point x="68" y="651" type="curve" smooth="yes"/>
      <point x="68" y="684"/>
      <point x="79" y="713"/>
      <point x="102" y="738" type="curve" smooth="yes"/>
      <point x="125" y="763"/>
      <point x="152" y="775"/>
      <point x="184" y="775" type="curve" smooth="yes"/>
      <point x="215" y="775"/>
      <point x="243" y="763"/>
      <point x="266" y="738" type="curve" smooth="yes"/>
      <point x="289" y="713"/>
      <point x="301" y="684"/>
      <point x="301" y="651" type="curve"/>
    </contour>
    <contour>
      <point x="729" y="949" type="line"/>
      <point x="729" y="901"/>
      <point x="709" y="856"/>
      <point x="670" y="815" type="curve" smooth="yes"/>
      <point x="631" y="773"/>
      <point x="587" y="752"/>
      <point x="540" y="752" type="curve" smooth="yes"/>
      <point x="493" y="752"/>
      <point x="449" y="773"/>
      <point x="410" y="815" type="curve" smooth="yes"/>
      <point x="370" y="856"/>
      <point x="350" y="901"/>
      <point x="350" y="949" type="curve" smooth="yes"/>
      <point x="350" y="997"/>
      <point x="370" y="1042"/>
      <point x="410" y="1084" type="curve" smooth="yes"/>
      <point x="449" y="1125"/>
      <point x="493" y="1146"/>
      <point x="540" y="1146" type="curve" smooth="yes"/>
      <point x="587" y="1146"/>
      <point x="631" y="1125"/>
      <point x="670" y="1084" type="curve" smooth="yes"/>
      <point x="709" y="1042"/>
      <point x="729" y="997"/>
      <point x="729" y="949" type="curve"/>
    </contour>
    <contour>
      <point x="652" y="949" type="line"/>
      <point x="652" y="980"/>
      <point x="641" y="1007"/>
      <point x="620" y="1030" type="curve" smooth="yes"/>
      <point x="598" y="1053"/>
      <point x="571" y="1064"/>
      <point x="540" y="1064" type="curve" smooth="yes"/>
      <point x="509" y="1064"/>
      <point x="482" y="1053"/>
      <point x="461" y="1030" type="curve" smooth="yes"/>
      <point x="439" y="1007"/>
      <point x="428" y="980"/>
      <point x="428" y="949" type="curve" smooth="yes"/>
      <point x="428" y="918"/>
      <point x="439" y="891"/>
      <point x="461" y="868" type="curve" smooth="yes"/>
      <point x="482" y="845"/>
      <point x="509" y="834"/>
      <point x="540" y="834" type="curve" smooth="yes"/>
      <point x="571" y="834"/>
      <point x="598" y="845"/>
      <point x="620" y="868" type="curve" smooth="yes"/>
      <point x="641" y="891"/>
      <point x="652" y="918"/>
      <point x="652" y="949" type="curve"/>
    </contour>
  </outline>
</glyph>
<glyph name="ucas_finalring" format="2">
  <advance width="936"/>
  <unicode hex="1424"/>
  <outline>
    <contour>
      <point x="465" y="1393" type="line"/>
      <point x="529" y="1393"/>
      <point x="588" y="1377"/>
      <point x="641" y="1346" type="curve" smooth="yes"/>
      <point x="694" y="1314"/>
      <point x="737" y="1272"/>
      <point x="768" y="1219" type="curve" smooth="yes"/>
      <point x="799" y="1166"/>
      <point x="815" y="1107"/>
      <point x="815" y="1042" type="curve" smooth="yes"/>
      <point x="815" y="978"/>
      <point x="799" y="920"/>
      <point x="768" y="866" type="curve" smooth="yes"/>
      <point x="737" y="813"/>
      <point x="696" y="769"/>
      <point x="641" y="737" type="curve" smooth="yes"/>
      <point x="587" y="705"/>
      <point x="528" y="690"/>
      <point x="465" y="690" type="curve" smooth="yes"/>
      <point x="402" y="690"/>
      <point x="344" y="705"/>
      <point x="291" y="737" type="curve" smooth="yes"/>
      <point x="236" y="769"/>
      <point x="193" y="813"/>
      <point x="162" y="866" type="curve" smooth="yes"/>
      <point x="131" y="919"/>
      <point x="115" y="978"/>
      <point x="115" y="1042" type="curve" smooth="yes"/>
      <point x="115" y="1107"/>
      <point x="131" y="1166"/>
      <point x="162" y="1219" type="curve" smooth="yes"/>
      <point x="193" y="1272"/>
      <point x="236" y="1314"/>
      <point x="289" y="1346" type="curve" smooth="yes"/>
      <point x="342" y="1377"/>
      <point x="401" y="1393"/>
      <point x="465" y="1393" type="curve"/>
    </contour>
    <contour>
      <point x="467" y="1186" type="line"/>
      <point x="426" y="1186"/>
      <point x="391" y="1172"/>
      <point x="362" y="1143" type="curve" smooth="yes"/>
      <point x="333" y="1114"/>
      <point x="319" y="1080"/>
      <point x="319" y="1040" type="curve" smooth="yes"/>
      <point x="319" y="1001"/>
      <point x="333" y="967"/>
      <point x="362" y="938" type="curve" smooth="yes"/>
      <point x="391" y="909"/>
      <point x="426" y="895"/>
      <point x="467" y="895" type="curve" smooth="yes"/>
      <point x="508" y="895"/>
      <point x="541" y="910"/>
      <point x="569" y="938" type="curve" smooth="yes"/>
      <point x="596" y="966"/>
      <point x="610" y="999"/>
      <point x="610" y="1040" type="curve" smooth="yes"/>
      <point x="610" y="1081"/>
      <point x="597" y="1117"/>
      <point x="569" y="1145" type="curve" smooth="yes"/>
      <point x="542" y="1173"/>
      <point x="508" y="1186"/>
      <point x="467" y="1186" type="curve"/>
    </contour>
  </outline>
</glyph>
<glyph name="ucas_finaldbleshortvstrokes" format="2">
  <advance width="891"/>
  <unicode hex="1426"/>
  <outline>
    <contour>
      <point x="770" y="781" type="line"/>
      <point x="569" y="781" type="line"/>
      <point x="569" y="1458" type="line"/>
      <point x="770" y="1458" type="line"/>
    </contour>
    <contour>
      <point x="324" y="781" type="line"/>
      <point x="121" y="781" type="line"/>
      <point x="121" y="1458" type="line"/>
      <point x="324" y="1458" type="line"/>
    </contour>
  </outline>
</glyph>
<glyph name="ucas_finalmiddledot" format="2">
  <advance width="403"/>
  <unicode hex="1427"/>
  <outline>
    <contour>
      <point x="248" y="885" type="line"/>
      <point x="291" y="885"/>
      <point x="328" y="870"/>
      <point x="358" y="840" type="curve" smooth="yes"/>
      <point x="388" y="809"/>
      <point x="403" y="772"/>
      <point x="403" y="729" type="curve" smooth="yes"/>
      <point x="403" y="687"/>
      <point x="388" y="651"/>
      <point x="358" y="621" type="curve" smooth="yes"/>
      <point x="327" y="590"/>
      <point x="290" y="575"/>
      <point x="248" y="575" type="curve" smooth="yes"/>
      <point x="205" y="575"/>
      <point x="169" y="590"/>
      <point x="139" y="621" type="curve" smooth="yes"/>
      <point x="109" y="651"/>
      <point x="94" y="687"/>
      <point x="94" y="729" type="curve" smooth="yes"/>
      <point x="94" y="773"/>
      <point x="109" y="810"/>
      <point x="139" y="840" type="curve" smooth="yes"/>
      <point x="169" y="870"/>
      <point x="205" y="885"/>
      <point x="248" y="885" type="curve"/>
    </contour>
  </outline>
</glyph>
<glyph name="ucas_finalshorthstroke" format="2">
  <advance width="696"/>
  <unicode hex="1428"/>
  <outline>
    <contour>
      <point x="590" y="1130" type="line"/>
      <point x="590" y="930" type="line"/>
      <point x="106" y="930" type="line"/>
      <point x="106" y="1130" type="line"/>
    </contour>
  </outline>
</glyph>
<glyph name="ucas_finalplus" format="2">
  <advance width="1000"/>
  <unicode hex="1429"/>
  <outline>
    <contour>
      <point x="850" y="850" type="line"/>
      <point x="600" y="850" type="line"/>
      <point x="600" y="600" type="line"/>
      <point x="400" y="600" type="line"/>
      <point x="400" y="850" type="line"/>
      <point x="150" y="850" type="line"/>
      <point x="150" y="1050" type="line"/>
      <point x="400" y="1050" type="line"/>
      <point x="400" y="1300" type="line"/>
      <point x="600" y="1300" type="line"/>
      <point x="600" y="1050" type="line"/>
      <point x="850" y="1050" type="line"/>
    </contour>
  </outline>
</glyph>
<glyph name="ucas_pe" format="2">
  <advance width="1584"/>
  <unicode hex="142F"/>
  <outline>
    <contour>
      <point x="792" y="567" type="line"/>
      <point x="1234" y="1458" type="line"/>
      <point x="1524" y="1458" type="line"/>
      <point x="792" y="-30" type="line"/>
      <point x="60" y="1458" type="line"/>
      <point x="350" y="1458" type="line"/>
    </contour>
  </outline>
</glyph>
<glyph name="ucas_pi" format="2">
  <advance width="1584"/>
  <unicode hex="1431"/>
  <outline>
    <contour>
      <point x="792" y="891" type="line"/>
      <point x="350" y="0" type="line"/>
      <point x="60" y="0" type="line"/>
      <point x="792" y="1488" type="line"/>
      <point x="1524" y="0" type="line"/>
      <point x="1234" y="0" type="line"/>
    </contour>
  </outline>
</glyph>
<glyph name="ucas_pooYCree" format="2">
  <advance width="1731"/>
  <unicode hex="1435"/>
  <outline>
    <component base="ucas_po"/>
    <contour>
      <point x="1139" y="1929" type="line"/>
      <point x="1230" y="1929"/>
      <point x="1305" y="1854"/>
      <point x="1305" y="1763" type="curve" smooth="yes"/>
      <point x="1305" y="1670"/>
      <point x="1232" y="1597"/>
      <point x="1139" y="1597" type="curve" smooth="yes"/>
      <point x="1051" y="1597"/>
      <point x="972" y="1675"/>
      <point x="972" y="1763" type="curve" smooth="yes"/>
      <point x="972" y="1850"/>
      <point x="1052" y="1929"/>
      <point x="1139" y="1929" type="curve"/>
    </contour>
    <contour>
      <point x="549" y="1929" type="line"/>
      <point x="640" y="1929"/>
      <point x="715" y="1854"/>
      <point x="715" y="1763" type="curve" smooth="yes"/>
      <point x="715" y="1670"/>
      <point x="642" y="1597"/>
      <point x="549" y="1597" type="curve" smooth="yes"/>
      <point x="461" y="1597"/>
      <point x="382" y="1675"/>
      <point x="382" y="1763" type="curve" smooth="yes"/>
      <point x="382" y="1850"/>
      <point x="462" y="1929"/>
      <point x="549" y="1929" type="curve"/>
    </contour>
  </outline>
</glyph>
<glyph name="ucas_pa" format="2">
  <advance width="1731"/>
  <unicode hex="1438"/>
  <outline>
    <contour>
      <point x="1541" y="1181" type="line"/>
      <point x="641" y="729" type="line"/>
      <point x="1541" y="277" type="line"/>
      <point x="1541" y="-30" type="line"/>
      <point x="60" y="729" type="line"/>
      <point x="1541" y="1473" type="line"/>
    </contour>
  </outline>
</glyph>
<glyph name="ucas_pWestCree" format="2">
  <advance width="446"/>
  <unicode hex="144A"/>
  <outline>
    <contour>
      <point x="324" y="563" type="line"/>
      <point x="121" y="563" type="line"/>
      <point x="121" y="1458" type="line"/>
      <point x="324" y="1458" type="line"/>
    </contour>
  </outline>
</glyph>
<glyph name="ucas_twooWestCree" format="2">
  <advance width="1588"/>
  <unicode hex="1460"/>
  <outline>
    <component base="ucas_to"/>
    <component base="ucas_finalmiddledot" xOffset="1099"/>
    <contour>
      <point x="252" y="1929" type="line"/>
      <point x="343" y="1929"/>
      <point x="418" y="1854"/>
      <point x="418" y="1763" type="curve" smooth="yes"/>
      <point x="418" y="1670"/>
      <point x="345" y="1597"/>
      <point x="252" y="1597" type="curve" smooth="yes"/>
      <point x="164" y="1597"/>
      <point x="85" y="1675"/>
      <point x="85" y="1763" type="curve" smooth="yes"/>
      <point x="85" y="1850"/>
      <point x="165" y="1929"/>
      <point x="252" y="1929" type="curve"/>
    </contour>
  </outline>
</glyph>
<glyph name="ucas_ko" format="2">
  <advance width="1252"/>
  <unicode hex="146F"/>
  <outline>
    <contour>
      <point x="595" y="672" type="line"/>
      <point x="717" y="672"/>
      <point x="814" y="573"/>
      <point x="814" y="452" type="curve" smooth="yes"/>
      <point x="814" y="332"/>
      <point x="714" y="235"/>
      <point x="595" y="235" type="curve" smooth="yes"/>
      <point x="475" y="235"/>
      <point x="378" y="339"/>
      <point x="378" y="458" type="curve" smooth="yes"/>
      <point x="378" y="577"/>
      <point x="475" y="672"/>
      <point x="595" y="672" type="curve"/>
    </contour>
    <contour>
      <point x="802" y="1458" type="line"/>
      <point x="802" y="876" type="line"/>
      <point x="738" y="908"/>
      <point x="667" y="926"/>
      <point x="595" y="926" type="curve" smooth="yes"/>
      <point x="333" y="926"/>
      <point x="120" y="721"/>
      <point x="120" y="458" type="curve" smooth="yes"/>
      <point x="120" y="197"/>
      <point x="333" y="-15"/>
      <point x="593" y="-15" type="curve" smooth="yes"/>
      <point x="854" y="-15"/>
      <point x="1062" y="199"/>
      <point x="1062" y="458" type="curve" smooth="yes"/>
      <point x="1062" y="1458" type="line"/>
    </contour>
  </outline>
</glyph>
<glyph name="ucas_kwii" format="2">
  <advance width="1655"/>
  <unicode hex="1478"/>
  <outline>
    <component base="ucas_ki" xOffset="380"/>
    <component base="ucas_finalmiddledot"/>
    <contour>
      <point x="1041" y="1929" type="line"/>
      <point x="1132" y="1929"/>
      <point x="1207" y="1854"/>
      <point x="1207" y="1763" type="curve" smooth="yes"/>
      <point x="1207" y="1670"/>
      <point x="1134" y="1597"/>
      <point x="1041" y="1597" type="curve" smooth="yes"/>
      <point x="953" y="1597"/>
      <point x="874" y="1675"/>
      <point x="874" y="1763" type="curve" smooth="yes"/>
      <point x="874" y="1850"/>
      <point x="954" y="1929"/>
      <point x="1041" y="1929" type="curve"/>
    </contour>
  </outline>
</glyph>
<glyph name="ucas_ce" format="2">
  <advance width="1252"/>
  <unicode hex="1489"/>
  <outline>
    <contour>
      <point x="802" y="0" type="line"/>
      <point x="802" y="1000" type="line" smooth="yes"/>
      <point x="802" y="1115"/>
      <point x="702" y="1225"/>
      <point x="591" y="1225" type="curve" smooth="yes"/>
      <point x="480" y="1225"/>
      <point x="380" y="1111"/>
      <point x="380" y="1000" type="curve" smooth="yes"/>
      <point x="380" y="879" type="line"/>
      <point x="120" y="879" type="line"/>
      <point x="120" y="1000" type="line" smooth="yes"/>
      <point x="120" y="1258"/>
      <point x="340" y="1473"/>
      <point x="591" y="1473" type="curve" smooth="yes"/>
      <point x="833" y="1473"/>
      <point x="1062" y="1250"/>
      <point x="1062" y="1000" type="curve" smooth="yes"/>
      <point x="1062" y="0" type="line"/>
    </contour>
  </outline>
</glyph>
<glyph name="ucas_ci" format="2">
  <advance width="1252"/>
  <unicode hex="148B"/>
  <outline>
    <contour>
      <point x="450" y="0" type="line"/>
      <point x="450" y="1000" type="line" smooth="yes"/>
      <point x="450" y="1115"/>
      <point x="550" y="1225"/>
      <point x="661" y="1225" type="curve" smooth="yes"/>
      <point x="772" y="1225"/>
      <point x="872" y="1111"/>
      <point x="872" y="1000" type="curve" smooth="yes"/>
      <point x="872" y="879" type="line"/>
      <point x="1132" y="879" type="line"/>
      <point x="1132" y="1000" type="line" smooth="yes"/>
      <point x="1132" y="1258"/>
      <point x="912" y="1473"/>
      <point x="661" y="1473" type="curve" smooth="yes"/>
      <point x="419" y="1473"/>
      <point x="190" y="1250"/>
      <point x="190" y="1000" type="curve" smooth="yes"/>
      <point x="190" y="0" type="line"/>
    </contour>
  </outline>
</glyph>
<glyph name="ucas_ca" format="2">
  <advance width="1252"/>
  <unicode hex="1490"/>
  <outline>
    <contour>
      <point x="450" y="1458" type="line"/>
      <point x="450" y="458" type="line" smooth="yes"/>
      <point x="450" y="343"/>
      <point x="550" y="233"/>
      <point x="661" y="233" type="curve" smooth="yes"/>
      <point x="772" y="233"/>
      <point x="872" y="347"/>
      <point x="872" y="458" type="curve" smooth="yes"/>
      <point x="872" y="579" type="line"/>
      <point x="1132" y="579" type="line"/>
      <point x="1132" y="458" type="line" smooth="yes"/>
      <point x="1132" y="200"/>
      <point x="912" y="-15"/>
      <point x="661" y="-15" type="curve" smooth="yes"/>
      <point x="419" y="-15"/>
      <point x="190" y="208"/>
      <point x="190" y="458" type="curve" smooth="yes"/>
      <point x="190" y="1458" type="line"/>
    </contour>
  </outline>
</glyph>
<glyph name="ucas_thSayisi" format="2">
  <advance width="922"/>
  <unicode hex="14A2"/>
  <outline>
    <contour>
      <point x="315" y="983" type="line"/>
      <point x="121" y="983" type="line"/>
      <point x="121" y="879" type="line" smooth="yes"/>
      <point x="121" y="695"/>
      <point x="280" y="555"/>
      <point x="459" y="555" type="curve" smooth="yes"/>
      <point x="635" y="555"/>
      <point x="801" y="692"/>
      <point x="801" y="874" type="curve" smooth="yes"/>
      <point x="801" y="1458" type="line"/>
      <point x="596" y="1458" type="line"/>
      <point x="596" y="884" type="line" smooth="yes"/>
      <point x="596" y="810"/>
      <point x="530" y="755"/>
      <point x="459" y="755" type="curve" smooth="yes"/>
      <point x="383" y="755"/>
      <point x="317" y="798"/>
      <point x="315" y="880" type="curve"/>
      <point x="315" y="880"/>
      <point x="315" y="949"/>
      <point x="315" y="983" type="curve"/>
    </contour>
  </outline>
</glyph>
<glyph name="ucas_mi" format="2">
  <advance width="1252"/>
  <unicode hex="14A5"/>
  <outline>
    <contour>
      <point x="1132" y="1198" type="line"/>
      <point x="450" y="1198" type="line"/>
      <point x="450" y="0" type="line"/>
      <point x="190" y="0" type="line"/>
      <point x="190" y="1458" type="line"/>
      <point x="1132" y="1458" type="line"/>
    </contour>
  </outline>
</glyph>
<glyph name="ucas_mo" format="2">
  <advance width="1252"/>
  <unicode hex="14A7"/>
  <outline>
    <contour>
      <point x="120" y="260" type="line"/>
      <point x="802" y="260" type="line"/>
      <point x="802" y="1458" type="line"/>
      <point x="1062" y="1458" type="line"/>
      <point x="1062" y="0" type="line"/>
      <point x="120" y="0" type="line"/>
    </contour>
  </outline>
</glyph>
<glyph name="ucas_mwoo" format="2">
  <advance width="1624"/>
  <unicode hex="14B4"/>
  <outline>
    <component base="ucas_mo" xOffset="370"/>
    <component base="ucas_finalmiddledot"/>
    <contour>
      <point x="1312" y="1929" type="line"/>
      <point x="1403" y="1929"/>
      <point x="1478" y="1854"/>
      <point x="1478" y="1763" type="curve" smooth="yes"/>
      <point x="1478" y="1670"/>
      <point x="1405" y="1597"/>
      <point x="1312" y="1597" type="curve" smooth="yes"/>
      <point x="1224" y="1597"/>
      <point x="1145" y="1675"/>
      <point x="1145" y="1763" type="curve" smooth="yes"/>
      <point x="1145" y="1850"/>
      <point x="1225" y="1929"/>
      <point x="1312" y="1929" type="curve"/>
    </contour>
  </outline>
</glyph>
<glyph name="ucas_m" format="2">
  <advance width="823"/>
  <unicode hex="14BB"/>
  <outline>
    <contour>
      <point x="702" y="768" type="line"/>
      <point x="702" y="563" type="line"/>
      <point x="121" y="563" type="line"/>
      <point x="121" y="1458" type="line"/>
      <point x="326" y="1458" type="line"/>
      <point x="326" y="768" type="line"/>
    </contour>
  </outline>
</glyph>
<glyph name="ucas_mh" format="2">
  <advance width="823"/>
  <unicode hex="14BD"/>
  <outline>
    <contour>
      <point x="121" y="768" type="line"/>
      <point x="498" y="768" type="line"/>
      <point x="498" y="1458" type="line"/>
      <point x="702" y="1458" type="line"/>
      <point x="702" y="563" type="line"/>
      <point x="121" y="563" type="line"/>
    </contour>
  </outline>
</glyph>
<glyph name="ucas_ne" format="2">
  <advance width="1720"/>
  <unicode hex="14C0"/>
  <outline>
    <contour>
      <point x="913" y="460" type="line"/>
      <point x="913" y="340"/>
      <point x="1010" y="243"/>
      <point x="1130" y="243" type="curve" smooth="yes"/>
      <point x="1252" y="243"/>
      <point x="1350" y="337"/>
      <point x="1350" y="460" type="curve" smooth="yes"/>
      <point x="1350" y="583"/>
      <point x="1253" y="679"/>
      <point x="1130" y="679" type="curve" smooth="yes"/>
      <point x="1011" y="679"/>
      <point x="913" y="578"/>
      <point x="913" y="460" type="curve"/>
    </contour>
    <contour>
      <point x="120" y="667" type="line"/>
      <point x="120" y="927" type="line"/>
      <point x="1130" y="927" type="line" smooth="yes"/>
      <point x="1386" y="927"/>
      <point x="1600" y="717"/>
      <point x="1600" y="460" type="curve" smooth="yes"/>
      <point x="1600" y="195"/>
      <point x="1397" y="-15"/>
      <point x="1130" y="-15" type="curve" smooth="yes"/>
      <point x="867" y="-15"/>
      <point x="659" y="199"/>
      <point x="659" y="460" type="curve" smooth="yes"/>
      <point x="659" y="532"/>
      <point x="677" y="603"/>
      <point x="709" y="667" type="curve"/>
    </contour>
  </outline>
</glyph>
<glyph name="ucas_ni" format="2">
  <advance width="1720"/>
  <unicode hex="14C2"/>
  <outline>
    <contour>
      <point x="807" y="460" type="line"/>
      <point x="807" y="340"/>
      <point x="710" y="243"/>
      <point x="590" y="243" type="curve" smooth="yes"/>
      <point x="468" y="243"/>
      <point x="370" y="337"/>
      <point x="370" y="460" type="curve" smooth="yes"/>
      <point x="370" y="583"/>
      <point x="467" y="679"/>
      <point x="590" y="679" type="curve" smooth="yes"/>
      <point x="709" y="679"/>
      <point x="807" y="578"/>
      <point x="807" y="460" type="curve"/>
    </contour>
    <contour>
      <point x="1600" y="667" type="line"/>
      <point x="1600" y="927" type="line"/>
      <point x="590" y="927" type="line" smooth="yes"/>
      <point x="334" y="927"/>
      <point x="120" y="717"/>
      <point x="120" y="460" type="curve" smooth="yes"/>
      <point x="120" y="195"/>
      <point x="323" y="-15"/>
      <point x="590" y="-15" type="curve" smooth="yes"/>
      <point x="853" y="-15"/>
      <point x="1061" y="199"/>
      <point x="1061" y="460" type="curve" smooth="yes"/>
      <point x="1061" y="532"/>
      <point x="1043" y="603"/>
      <point x="1011" y="667" type="curve"/>
    </contour>
  </outline>
</glyph>
<glyph name="ucas_nwaa" format="2">
  <advance width="2150"/>
  <unicode hex="14CD"/>
  <outline>
    <component base="ucas_na" xOffset="410"/>
    <component base="ucas_finalmiddledot" xOffset="27"/>
    <contour>
      <point x="999" y="1519" type="line"/>
      <point x="1090" y="1519"/>
      <point x="1165" y="1444"/>
      <point x="1165" y="1353" type="curve" smooth="yes"/>
      <point x="1165" y="1260"/>
      <point x="1092" y="1187"/>
      <point x="999" y="1187" type="curve" smooth="yes"/>
      <point x="911" y="1187"/>
      <point x="832" y="1265"/>
      <point x="832" y="1353" type="curve" smooth="yes"/>
      <point x="832" y="1440"/>
      <point x="912" y="1519"/>
      <point x="999" y="1519" type="curve"/>
    </contour>
  </outline>
</glyph>
<glyph name="ucas_n" format="2">
  <advance width="1143"/>
  <unicode hex="14D0"/>
  <outline>
    <contour>
      <point x="569" y="948" type="line"/>
      <point x="569" y="1020"/>
      <point x="514" y="1075"/>
      <point x="442" y="1075" type="curve" smooth="yes"/>
      <point x="370" y="1075"/>
      <point x="313" y="1021"/>
      <point x="313" y="948" type="curve" smooth="yes"/>
      <point x="313" y="874"/>
      <point x="368" y="819"/>
      <point x="442" y="819" type="curve" smooth="yes"/>
      <point x="515" y="819"/>
      <point x="569" y="876"/>
      <point x="569" y="948" type="curve"/>
    </contour>
    <contour>
      <point x="438" y="616" type="line" smooth="yes"/>
      <point x="258" y="616"/>
      <point x="121" y="773"/>
      <point x="121" y="948" type="curve" smooth="yes"/>
      <point x="121" y="1127"/>
      <point x="260" y="1280"/>
      <point x="442" y="1280" type="curve" smooth="yes"/>
      <point x="623" y="1280"/>
      <point x="764" y="1126"/>
      <point x="764" y="948" type="curve" smooth="yes"/>
      <point x="764" y="904"/>
      <point x="758" y="857"/>
      <point x="735" y="819" type="curve"/>
      <point x="1022" y="819" type="line"/>
      <point x="1022" y="616" type="line"/>
    </contour>
  </outline>
</glyph>
<glyph name="ucas_li" format="2">
  <advance width="1720"/>
  <unicode hex="14D5"/>
  <outline>
    <contour>
      <point x="1600" y="667" type="line"/>
      <point x="1600" y="927" type="line"/>
      <point x="590" y="927" type="line" smooth="yes"/>
      <point x="334" y="927"/>
      <point x="121" y="710"/>
      <point x="120" y="463" type="curve" smooth="yes"/>
      <point x="119" y="215"/>
      <point x="319" y="0"/>
      <point x="578" y="0" type="curve" smooth="yes"/>
      <point x="722" y="0" type="line"/>
      <point x="722" y="260" type="line"/>
      <point x="578" y="260" type="line" smooth="yes"/>
      <point x="464" y="260"/>
      <point x="380" y="348"/>
      <point x="380" y="463" type="curve" smooth="yes"/>
      <point x="380" y="576"/>
      <point x="455" y="667"/>
      <point x="590" y="667" type="curve" smooth="yes"/>
    </contour>
  </outline>
</glyph>
<glyph name="ucas_lo" format="2">
  <advance width="1720"/>
  <unicode hex="14D7"/>
  <outline>
    <contour>
      <point x="120" y="260" type="line"/>
      <point x="120" y="0" type="line"/>
      <point x="1130" y="0" type="line" smooth="yes"/>
      <point x="1386" y="0"/>
      <point x="1599" y="217"/>
      <point x="1600" y="464" type="curve" smooth="yes"/>
      <point x="1601" y="712"/>
      <point x="1401" y="927"/>
      <point x="1142" y="927" type="curve" smooth="yes"/>
      <point x="998" y="927" type="line"/>
      <point x="998" y="667" type="line"/>
      <point x="1142" y="667" type="line" smooth="yes"/>
      <point x="1256" y="667"/>
      <point x="1340" y="579"/>
      <point x="1340" y="464" type="curve" smooth="yes"/>
      <point x="1340" y="351"/>
      <point x="1265" y="260"/>
      <point x="1130" y="260" type="curve" smooth="yes"/>
    </contour>
  </outline>
</glyph>
<glyph name="ucas_loo" format="2">
  <advance width="1661"/>
  <unicode hex="14D8"/>
  <outline>
    <component base="ucas_lo"/>
    <contour>
      <point x="1109" y="1519" type="line"/>
      <point x="1200" y="1519"/>
      <point x="1275" y="1444"/>
      <point x="1275" y="1353" type="curve" smooth="yes"/>
      <point x="1275" y="1260"/>
      <point x="1202" y="1187"/>
      <point x="1109" y="1187" type="curve" smooth="yes"/>
      <point x="1021" y="1187"/>
      <point x="942" y="1265"/>
      <point x="942" y="1353" type="curve" smooth="yes"/>
      <point x="942" y="1440"/>
      <point x="1022" y="1519"/>
      <point x="1109" y="1519" type="curve"/>
    </contour>
  </outline>
</glyph>
<glyph name="ucas_la" format="2">
  <advance width="1720"/>
  <unicode hex="14DA"/>
  <outline>
    <contour>
      <point x="1600" y="260" type="line"/>
      <point x="1600" y="0" type="line"/>
      <point x="590" y="0" type="line" smooth="yes"/>
      <point x="334" y="0"/>
      <point x="121" y="217"/>
      <point x="120" y="464" type="curve" smooth="yes"/>
      <point x="119" y="712"/>
      <point x="319" y="927"/>
      <point x="578" y="927" type="curve" smooth="yes"/>
      <point x="722" y="927" type="line"/>
      <point x="722" y="667" type="line"/>
      <point x="578" y="667" type="line" smooth="yes"/>
      <point x="464" y="667"/>
      <point x="380" y="579"/>
      <point x="380" y="464" type="curve" smooth="yes"/>
      <point x="380" y="351"/>
      <point x="455" y="260"/>
      <point x="590" y="260" type="curve" smooth="yes"/>
    </contour>
  </outline>
</glyph>
<glyph name="ucas_lwoo" format="2">
  <advance width="1810"/>
  <unicode hex="14E4"/>
  <outline>
    <component base="ucas_lo" xOffset="137"/>
    <component base="ucas_finalmiddledot" xOffset="10"/>
    <contour>
      <point x="1259" y="1519" type="line"/>
      <point x="1350" y="1519"/>
      <point x="1425" y="1444"/>
      <point x="1425" y="1353" type="curve" smooth="yes"/>
      <point x="1425" y="1260"/>
      <point x="1352" y="1187"/>
      <point x="1259" y="1187" type="curve" smooth="yes"/>
      <point x="1171" y="1187"/>
      <point x="1092" y="1265"/>
      <point x="1092" y="1353" type="curve" smooth="yes"/>
      <point x="1092" y="1440"/>
      <point x="1172" y="1519"/>
      <point x="1259" y="1519" type="curve"/>
    </contour>
  </outline>
</glyph>
<glyph name="ucas_lwaa" format="2">
  <advance width="2150"/>
  <unicode hex="14E8"/>
  <outline>
    <component base="ucas_la" xOffset="430"/>
    <component base="ucas_finalmiddledot" xOffset="20"/>
    <contour>
      <point x="1019" y="1519" type="line"/>
      <point x="1110" y="1519"/>
      <point x="1185" y="1444"/>
      <point x="1185" y="1353" type="curve" smooth="yes"/>
      <point x="1185" y="1260"/>
      <point x="1112" y="1187"/>
      <point x="1019" y="1187" type="curve" smooth="yes"/>
      <point x="931" y="1187"/>
      <point x="852" y="1265"/>
      <point x="852" y="1353" type="curve" smooth="yes"/>
      <point x="852" y="1440"/>
      <point x="932" y="1519"/>
      <point x="1019" y="1519" type="curve"/>
    </contour>
  </outline>
</glyph>
<glyph name="ucas_se" format="2">
  <advance width="1310"/>
  <unicode hex="14ED"/>
  <outline>
    <contour>
      <point x="1120" y="0" type="line"/>
      <point x="860" y="0" type="line"/>
      <point x="860" y="565" type="line"/>
      <point x="705" y="565"/>
      <point x="595" y="575"/>
      <point x="458" y="657" type="curve" smooth="yes"/>
      <point x="255" y="778"/>
      <point x="120" y="998"/>
      <point x="120" y="1237" type="curve" smooth="yes"/>
      <point x="120" y="1458" type="line"/>
      <point x="380" y="1458" type="line"/>
      <point x="380" y="1239" type="line" smooth="yes"/>
      <point x="380" y="1170"/>
      <point x="399" y="1101"/>
      <point x="431" y="1040" type="curve" smooth="yes"/>
      <point x="502" y="903"/>
      <point x="639" y="825"/>
      <point x="792" y="825" type="curve" smooth="yes"/>
      <point x="1120" y="825" type="line"/>
    </contour>
  </outline>
</glyph>
<glyph name="ucas_sa" format="2">
  <advance width="1310"/>
  <unicode hex="14F4"/>
  <outline>
    <contour>
      <point x="190" y="1458" type="line"/>
      <point x="450" y="1458" type="line"/>
      <point x="450" y="893" type="line"/>
      <point x="605" y="893"/>
      <point x="715" y="883"/>
      <point x="852" y="801" type="curve" smooth="yes"/>
      <point x="1055" y="680"/>
      <point x="1190" y="460"/>
      <point x="1190" y="221" type="curve" smooth="yes"/>
      <point x="1190" y="0" type="line"/>
      <point x="930" y="0" type="line"/>
      <point x="930" y="219" type="line" smooth="yes"/>
      <point x="930" y="288"/>
      <point x="911" y="357"/>
      <point x="879" y="418" type="curve" smooth="yes"/>
      <point x="808" y="555"/>
      <point x="671" y="633"/>
      <point x="518" y="633" type="curve" smooth="yes"/>
      <point x="190" y="633" type="line"/>
    </contour>
  </outline>
</glyph>
<glyph name="ucas_swooWestCree" format="2">
  <advance width="1713"/>
  <unicode hex="14FF"/>
  <outline>
    <component base="ucas_so"/>
    <component base="ucas_finalmiddledot" xOffset="1216"/>
    <contour>
      <point x="999" y="1929" type="line"/>
      <point x="1090" y="1929"/>
      <point x="1165" y="1854"/>
      <point x="1165" y="1763" type="curve" smooth="yes"/>
      <point x="1165" y="1670"/>
      <point x="1092" y="1597"/>
      <point x="999" y="1597" type="curve" smooth="yes"/>
      <point x="911" y="1597"/>
      <point x="832" y="1675"/>
      <point x="832" y="1763" type="curve" smooth="yes"/>
      <point x="832" y="1850"/>
      <point x="912" y="1929"/>
      <point x="999" y="1929" type="curve"/>
    </contour>
  </outline>
</glyph>
<glyph name="ucas_skMooseCree" format="2">
  <advance width="1050"/>
  <unicode hex="1509"/>
  <outline>
    <contour>
      <point x="925" y="657" type="line"/>
      <point x="925" y="464"/>
      <point x="783" y="262"/>
      <point x="576" y="262" type="curve" smooth="yes"/>
      <point x="395" y="262"/>
      <point x="248" y="409"/>
      <point x="248" y="590" type="curve" smooth="yes"/>
      <point x="248" y="770"/>
      <point x="396" y="918"/>
      <point x="576" y="918" type="curve" smooth="yes"/>
      <point x="601" y="918"/>
      <point x="625" y="915"/>
      <point x="648" y="907" type="curve"/>
      <point x="572" y="977"/>
      <point x="462" y="975"/>
      <point x="365" y="975" type="curve" smooth="yes"/>
      <point x="125" y="975" type="line"/>
      <point x="125" y="1458" type="line"/>
      <point x="330" y="1458" type="line"/>
      <point x="330" y="1180" type="line"/>
      <point x="432" y="1180"/>
      <point x="537" y="1174"/>
      <point x="634" y="1141" type="curve" smooth="yes"/>
      <point x="839" y="1071"/>
      <point x="925" y="860"/>
      <point x="925" y="657" type="curve"/>
    </contour>
    <contour>
      <point x="707" y="594" type="line"/>
      <point x="707" y="666"/>
      <point x="648" y="725"/>
      <point x="576" y="725" type="curve" smooth="yes"/>
      <point x="503" y="725"/>
      <point x="443" y="666"/>
      <point x="443" y="592" type="curve" smooth="yes"/>
      <point x="443" y="518"/>
      <point x="503" y="459"/>
      <point x="576" y="459" type="curve" smooth="yes"/>
      <point x="652" y="459"/>
      <point x="707" y="519"/>
      <point x="707" y="594" type="curve"/>
    </contour>
  </outline>
</glyph>
<glyph name="ucas_swNaskapi" format="2">
  <advance width="629"/>
  <unicode hex="150B"/>
  <outline>
    <contour>
      <point x="522" y="1196" type="line"/>
      <point x="522" y="1101"/>
      <point x="460" y="1018"/>
      <point x="360" y="1018" type="curve" smooth="yes"/>
      <point x="269" y="1018"/>
      <point x="203" y="1094"/>
      <point x="203" y="1183" type="curve" smooth="yes"/>
      <point x="203" y="1274"/>
      <point x="267" y="1346"/>
      <point x="360" y="1346" type="curve" smooth="yes"/>
      <point x="445" y="1346"/>
      <point x="522" y="1285"/>
      <point x="522" y="1196" type="curve"/>
    </contour>
    <contour>
      <point x="543" y="475" type="line"/>
      <point x="406" y="475" type="line"/>
      <point x="406" y="551" type="line" smooth="yes"/>
      <point x="406" y="620"/>
      <point x="353" y="676"/>
      <point x="283" y="676" type="curve" smooth="yes"/>
      <point x="121" y="676" type="line"/>
      <point x="121" y="985" type="line"/>
      <point x="258" y="985" type="line"/>
      <point x="258" y="813" type="line"/>
      <point x="317" y="813"/>
      <point x="361" y="808"/>
      <point x="413" y="778" type="curve" smooth="yes"/>
      <point x="490" y="731"/>
      <point x="543" y="644"/>
      <point x="543" y="553" type="curve" smooth="yes"/>
    </contour>
    <contour>
      <point x="522" y="274" type="line"/>
      <point x="522" y="179"/>
      <point x="460" y="96"/>
      <point x="360" y="96" type="curve" smooth="yes"/>
      <point x="269" y="96"/>
      <point x="203" y="172"/>
      <point x="203" y="261" type="curve" smooth="yes"/>
      <point x="203" y="352"/>
      <point x="267" y="424"/>
      <point x="360" y="424" type="curve" smooth="yes"/>
      <point x="445" y="424"/>
      <point x="522" y="363"/>
      <point x="522" y="274" type="curve"/>
    </contour>
  </outline>
</glyph>
<glyph name="ucas_shi" format="2">
  <advance width="1717"/>
  <unicode hex="1511"/>
  <outline>
    <contour>
      <point x="120" y="442" type="line"/>
      <point x="120" y="518"/>
      <point x="134" y="595"/>
      <point x="155" y="668" type="curve"/>
      <point x="407" y="586" type="line"/>
      <point x="381" y="539"/>
      <point x="366" y="452"/>
      <point x="366" y="399" type="curve" smooth="yes"/>
      <point x="366" y="323"/>
      <point x="417" y="233"/>
      <point x="501" y="233" type="curve" smooth="yes"/>
      <point x="606" y="233"/>
      <point x="645" y="337"/>
      <point x="663" y="424" type="curve" smooth="yes"/>
      <point x="783" y="1010" type="line" smooth="yes"/>
      <point x="832" y="1248"/>
      <point x="941" y="1473"/>
      <point x="1218" y="1473" type="curve" smooth="yes"/>
      <point x="1468" y="1473"/>
      <point x="1597" y="1237"/>
      <point x="1597" y="1012" type="curve" smooth="yes"/>
      <point x="1597" y="936"/>
      <point x="1582" y="860"/>
      <point x="1562" y="786" type="curve"/>
      <point x="1320" y="856" type="line"/>
      <point x="1344" y="907"/>
      <point x="1345" y="1002"/>
      <point x="1345" y="1057" type="curve" smooth="yes"/>
      <point x="1345" y="1137"/>
      <point x="1297" y="1227"/>
      <point x="1207" y="1227" type="curve" smooth="yes"/>
      <point x="1100" y="1227"/>
      <point x="1065" y="1121"/>
      <point x="1048" y="1034" type="curve" smooth="yes"/>
      <point x="933" y="446" type="line" smooth="yes"/>
      <point x="886" y="207"/>
      <point x="777" y="-15"/>
      <point x="499" y="-15" type="curve" smooth="yes"/>
      <point x="246" y="-15"/>
      <point x="120" y="214"/>
      <point x="120" y="442" type="curve"/>
    </contour>
  </outline>
</glyph>
<glyph name="ucas_yi" format="2">
  <advance width="1415"/>
  <unicode hex="1528"/>
  <outline>
    <contour>
      <point x="450" y="599" type="line"/>
      <point x="1355" y="599" type="line"/>
      <point x="615" y="1458" type="line"/>
      <point x="271" y="1458" type="line"/>
      <point x="786" y="859" type="line"/>
      <point x="190" y="859" type="line"/>
      <point x="190" y="0" type="line"/>
      <point x="450" y="0" type="line"/>
    </contour>
  </outline>
</glyph>
<glyph name="ucas_yo" format="2">
  <advance width="1415"/>
  <unicode hex="152A"/>
  <outline>
    <contour>
      <point x="965" y="859" type="line"/>
      <point x="60" y="859" type="line"/>
      <point x="800" y="0" type="line"/>
      <point x="1144" y="0" type="line"/>
      <point x="629" y="599" type="line"/>
      <point x="1225" y="599" type="line"/>
      <point x="1225" y="1458" type="line"/>
      <point x="965" y="1458" type="line"/>
    </contour>
  </outline>
</glyph>
<glyph name="ucas_ya" format="2">
  <advance width="1415"/>
  <unicode hex="152D"/>
  <outline>
    <contour>
      <point x="450" y="859" type="line"/>
      <point x="1355" y="859" type="line"/>
      <point x="615" y="0" type="line"/>
      <point x="271" y="0" type="line"/>
      <point x="786" y="599" type="line"/>
      <point x="190" y="599" type="line"/>
      <point x="190" y="1458" type="line"/>
      <point x="450" y="1458" type="line"/>
    </contour>
  </outline>
</glyph>
<glyph name="ucas_ywaa" format="2">
  <advance width="1784"/>
  <unicode hex="153B"/>
  <outline>
    <component base="ucas_ya" xOffset="369"/>
    <component base="ucas_finalmiddledot"/>
    <contour>
      <point x="688" y="1929" type="line"/>
      <point x="779" y="1929"/>
      <point x="854" y="1854"/>
      <point x="854" y="1763" type="curve" smooth="yes"/>
      <point x="854" y="1670"/>
      <point x="781" y="1597"/>
      <point x="688" y="1597" type="curve" smooth="yes"/>
      <point x="600" y="1597"/>
      <point x="521" y="1675"/>
      <point x="521" y="1763" type="curve" smooth="yes"/>
      <point x="521" y="1850"/>
      <point x="601" y="1929"/>
      <point x="688" y="1929" type="curve"/>
    </contour>
  </outline>
</glyph>
<glyph name="ucas_y" format="2">
  <advance width="1010"/>
  <unicode hex="153E"/>
  <outline>
    <contour>
      <point x="252" y="563" type="line"/>
      <point x="535" y="930" type="line"/>
      <point x="121" y="930" type="line"/>
      <point x="121" y="1458" type="line"/>
      <point x="326" y="1458" type="line"/>
      <point x="326" y="1135" type="line"/>
      <point x="950" y="1135" type="line"/>
      <point x="514" y="563" type="line"/>
    </contour>
  </outline>
</glyph>
<glyph name="ucas_raai" format="2">
  <advance width="1790"/>
  <unicode hex="1545"/>
  <outline>
    <component base="ucas_ri"/>
    <contour>
      <point x="665" y="1452" type="line"/>
      <point x="771" y="1452"/>
      <point x="857" y="1366"/>
      <point x="857" y="1257" type="curve" smooth="yes"/>
      <point x="857" y="1148"/>
      <point x="772" y="1061"/>
      <point x="665" y="1061" type="curve" smooth="yes"/>
      <point x="558" y="1061"/>
      <point x="474" y="1149"/>
      <point x="474" y="1257" type="curve" smooth="yes"/>
      <point x="474" y="1366"/>
      <point x="558" y="1452"/>
      <point x="665" y="1452" type="curve"/>
    </contour>
    <contour>
      <point x="665" y="1382" type="line"/>
      <point x="597" y="1382"/>
      <point x="543" y="1327"/>
      <point x="543" y="1257" type="curve" smooth="yes"/>
      <point x="543" y="1188"/>
      <point x="597" y="1133"/>
      <point x="665" y="1133" type="curve" smooth="yes"/>
      <point x="733" y="1133"/>
      <point x="787" y="1188"/>
      <point x="787" y="1257" type="curve" smooth="yes"/>
      <point x="787" y="1327"/>
      <point x="733" y="1382"/>
      <point x="665" y="1382" type="curve"/>
    </contour>
  </outline>
</glyph>
<glyph name="ucas_ri" format="2">
  <advance width="1790"/>
  <unicode hex="1546"/>
  <outline>
    <contour>
      <point x="1670" y="0" type="line"/>
      <point x="880" y="0" type="line"/>
      <point x="880" y="467" type="line" smooth="yes"/>
      <point x="880" y="588"/>
      <point x="786" y="684"/>
      <point x="665" y="684" type="curve" smooth="yes"/>
      <point x="544" y="684"/>
      <point x="450" y="588"/>
      <point x="450" y="467" type="curve" smooth="yes"/>
      <point x="450" y="0" type="line"/>
      <point x="190" y="0" type="line"/>
      <point x="190" y="467" type="line" smooth="yes"/>
      <point x="190" y="732"/>
      <point x="399" y="942"/>
      <point x="665" y="942" type="curve" smooth="yes"/>
      <point x="928" y="942"/>
      <point x="1140" y="728"/>
      <point x="1140" y="467" type="curve" smooth="yes"/>
      <point x="1140" y="263" type="line"/>
      <point x="1670" y="263" type="line"/>
    </contour>
  </outline>
</glyph>
<glyph name="ucas_ro" format="2">
  <advance width="1252"/>
  <unicode hex="1548"/>
  <outline>
    <contour>
      <point x="190" y="0" type="line"/>
      <point x="190" y="802" type="line"/>
      <point x="657" y="802" type="line" smooth="yes"/>
      <point x="778" y="802"/>
      <point x="874" y="879"/>
      <point x="874" y="1000" type="curve" smooth="yes"/>
      <point x="874" y="1121"/>
      <point x="778" y="1198"/>
      <point x="657" y="1198" type="curve" smooth="yes"/>
      <point x="190" y="1198" type="line"/>
      <point x="190" y="1458" type="line"/>
      <point x="657" y="1458" type="line" smooth="yes"/>
      <point x="922" y="1458"/>
      <point x="1132" y="1266"/>
      <point x="1132" y="1000" type="curve" smooth="yes"/>
      <point x="1132" y="737"/>
      <point x="918" y="542"/>
      <point x="657" y="542" type="curve" smooth="yes"/>
      <point x="453" y="542" type="line"/>
      <point x="453" y="0" type="line"/>
    </contour>
  </outline>
</glyph>
<glyph name="ucas_fi" format="2">
  <advance width="1510"/>
  <unicode hex="1555"/>
  <outline>
    <contour>
      <point x="472" y="47" type="line"/>
      <point x="556" y="47"/>
      <point x="615" y="110"/>
      <point x="615" y="193" type="curve" smooth="yes"/>
      <point x="615" y="272"/>
      <point x="552" y="338"/>
      <point x="472" y="338" type="curve" smooth="yes"/>
      <point x="392" y="338"/>
      <point x="324" y="274"/>
      <point x="324" y="193" type="curve" smooth="yes"/>
      <point x="324" y="111"/>
      <point x="391" y="47"/>
      <point x="472" y="47" type="curve"/>
    </contour>
    <contour>
      <point x="718" y="1488" type="line"/>
      <point x="1450" y="0" type="line"/>
      <point x="1158" y="0" type="line"/>
      <point x="716" y="901" type="line"/>
      <point x="551" y="533" type="line"/>
      <point x="710" y="496"/>
      <point x="820" y="353"/>
      <point x="820" y="191" type="curve" smooth="yes"/>
      <point x="820" y="-3"/>
      <point x="664" y="-160"/>
      <point x="470" y="-160" type="curve" smooth="yes"/>
      <point x="276" y="-160"/>
      <point x="120" y="-3"/>
      <point x="120" y="191" type="curve" smooth="yes"/>
      <point x="120" y="251"/>
      <point x="135" y="310"/>
      <point x="165" y="362" type="curve"/>
    </contour>
  </outline>
</glyph>
<glyph name="ucas_fa" format="2">
  <advance width="1829"/>
  <unicode hex="1559"/>
  <outline>
    <contour>
      <point x="1501" y="963" type="line"/>
      <point x="1501" y="879"/>
      <point x="1438" y="820"/>
      <point x="1355" y="820" type="curve" smooth="yes"/>
      <point x="1276" y="820"/>
      <point x="1210" y="883"/>
      <point x="1210" y="963" type="curve" smooth="yes"/>
      <point x="1210" y="1043"/>
      <point x="1274" y="1111"/>
      <point x="1355" y="1111" type="curve" smooth="yes"/>
      <point x="1437" y="1111"/>
      <point x="1501" y="1044"/>
      <point x="1501" y="963" type="curve"/>
    </contour>
    <contour>
      <point x="60" y="717" type="line"/>
      <point x="1548" y="-15" type="line"/>
      <point x="1548" y="277" type="line"/>
      <point x="647" y="719" type="line"/>
      <point x="1015" y="884" type="line"/>
      <point x="1052" y="725"/>
      <point x="1195" y="615"/>
      <point x="1357" y="615" type="curve" smooth="yes"/>
      <point x="1551" y="615"/>
      <point x="1708" y="771"/>
      <point x="1708" y="965" type="curve" smooth="yes"/>
      <point x="1708" y="1159"/>
      <point x="1551" y="1315"/>
      <point x="1357" y="1315" type="curve" smooth="yes"/>
      <point x="1297" y="1315"/>
      <point x="1238" y="1300"/>
      <point x="1186" y="1270" type="curve"/>
    </contour>
  </outline>
</glyph>
<glyph name="ucas_chisign" format="2">
  <advance width="1301"/>
  <unicode hex="166D"/>
  <outline>
    <contour>
      <point x="339" y="0" type="line"/>
      <point x="28" y="0" type="line"/>
      <point x="495" y="737" type="line"/>
      <point x="40" y="1458" type="line"/>
      <point x="337" y="1458" type="line"/>
      <point x="644" y="975" type="line"/>
      <point x="953" y="1458" type="line"/>
      <point x="1261" y="1458" type="line"/>
      <point x="804" y="737" type="line"/>
      <point x="1271" y="0" type="line"/>
      <point x="953" y="0" type="line"/>
      <point x="644" y="496" type="line"/>
    </contour>
  </outline>
</glyph>
